<?xml version="1.0" encoding="UTF-8"?>
<svg version="1.1" xmlns="http://www.w3.org/2000/svg" width="944" height="463">
<path d="M0 0 C5.16943012 1.23697078 9.25047821 4.19626963 13.375 7.4375 C14.07496094 7.98535156 14.77492188 8.53320312 15.49609375 9.09765625 C18.98953373 11.95848134 18.98953373 11.95848134 20.375 13.4375 C20.375 14.0975 20.375 14.7575 20.375 15.4375 C21.035 15.4375 21.695 15.4375 22.375 15.4375 C23.92578125 17.01171875 23.92578125 17.01171875 25.6875 19.125 C28.4350138 22.403494 31.34335323 25.41999777 34.375 28.4375 C50.15565839 45.20844262 60.77607368 67.2201767 71.375 87.4375 C72.35719509 85.50153347 73.33545925 83.56357292 74.3125 81.625 C74.62678955 81.00262451 74.9410791 80.38024902 75.26489258 79.73901367 C77.05347449 76.17014041 78.77876241 72.58363324 80.421875 68.9453125 C87.69864859 52.90811859 96.41988795 37.49216249 108.375 24.4375 C108.82842773 23.94169434 109.28185547 23.44588867 109.74902344 22.93505859 C120.74442666 11.05458785 133.17620316 2.21426111 149.625 0 C156.04749202 0.74929074 160.23045042 4.93414653 164.375 9.6875 C166.375 12.4375 166.375 12.4375 166.375 14.4375 C166.95507812 14.69789063 167.53515625 14.95828125 168.1328125 15.2265625 C177.15838731 20.10100186 181.61077216 29.25606384 185.15234375 38.45703125 C189.22702321 52.10869454 187.50813366 68.49407475 187.47265625 82.55859375 C187.47078705 84.75675931 187.46936552 86.9549253 187.46836853 89.15309143 C187.46458289 94.8887755 187.45478719 100.62443352 187.44366455 106.36010742 C187.43336461 112.23290657 187.42885267 118.10571001 187.42382812 123.97851562 C187.41316068 135.46485508 187.3961328 146.95117536 187.375 158.4375 C189.85 157.4475 189.85 157.4475 192.375 156.4375 C193.41090338 157.50643218 194.42833942 158.59328488 195.4375 159.6875 C196.00597656 160.29078125 196.57445312 160.8940625 197.16015625 161.515625 C198.375 163.4375 198.375 163.4375 198.21875 165.5 C196.93154531 168.45580337 194.71528404 170.27723781 192.375 172.4375 C193.6125 172.14875 194.85 171.86 196.125 171.5625 C196.82109375 171.40007812 197.5171875 171.23765625 198.234375 171.0703125 C200.7570203 170.39257574 200.7570203 170.39257574 204.375 168.4375 C206.355 171.0775 208.335 173.7175 210.375 176.4375 C208.31503602 180.55742795 206.08903987 182.67044991 202.625 185.5 C202.04790283 185.97969238 201.47080566 186.45938477 200.8762207 186.95361328 C196.26435656 190.7647936 191.57025492 194.47027625 186.85009766 198.14599609 C179.60008995 203.79611355 172.49314373 209.62280856 165.375 215.4375 C157.82009725 211.35911017 157.82009725 211.35911017 154.9375 207.8125 C154.19693359 206.92691406 154.19693359 206.92691406 153.44140625 206.0234375 C152.375 204.4375 152.375 204.4375 152.375 202.4375 C151.818125 202.19 151.26125 201.9425 150.6875 201.6875 C141.72779756 196.8444176 136.70368899 187.79940742 133.375 178.4375 C129.88940957 166.59801354 129.90124246 154.95975381 129.86328125 142.7265625 C129.8464022 140.66147823 129.82824772 138.59640402 129.80888367 136.53134155 C129.76172765 131.14256947 129.73169699 125.75383824 129.70544434 120.3649292 C129.6754637 114.84737077 129.62899427 109.32995267 129.58398438 103.8125 C129.49834343 93.02090726 129.43082536 82.22928533 129.375 71.4375 C123.19883964 89.42337868 117.49781653 107.38860261 112.75 125.8125 C112.21836183 127.84398939 111.68580942 129.87523974 111.15234375 131.90625 C109.88280695 136.74734507 108.62521459 141.59138077 107.375 146.4375 C108.695 145.7775 110.015 145.1175 111.375 144.4375 C113.025 146.7475 114.675 149.0575 116.375 151.4375 C115.385 153.0875 114.395 154.7375 113.375 156.4375 C116.0988399 157.79941995 118.35596827 157.49911289 121.375 157.4375 C122.365 157.4375 123.355 157.4375 124.375 157.4375 C126.5625 160.4375 126.5625 160.4375 128.375 163.4375 C126.87653206 167.06151213 124.81711507 169.0692703 121.875 171.625 C120.9778125 172.41261719 120.080625 173.20023438 119.15625 174.01171875 C118.2384375 174.81222656 117.320625 175.61273438 116.375 176.4375 C114.70551794 177.93436586 113.03878377 179.43430296 111.375 180.9375 C110.55386719 181.67613281 109.73273438 182.41476562 108.88671875 183.17578125 C107.17944202 184.71312686 105.47376956 186.25225555 103.76953125 187.79296875 C102.0814332 189.31762009 100.38889364 190.83737187 98.69140625 192.3515625 C97.24131443 193.65737875 95.80838143 194.98280025 94.40234375 196.3359375 C91.73857996 198.82992293 90.0151612 200.27405459 86.4375 201.1875 C80.06334167 199.62648163 74.96409729 194.82114593 71.375 189.4375 C71.375 188.7775 71.375 188.1175 71.375 187.4375 C70.818125 187.19 70.26125 186.9425 69.6875 186.6875 C63.97347421 183.59883741 60.72393055 179.54228613 57.3125 174.1875 C56.84424805 173.45732666 56.37599609 172.72715332 55.89355469 171.97485352 C47.1206077 157.9343644 40.11471666 142.71827879 33.6796875 127.484375 C32.65161807 125.0834943 31.57878245 122.75334815 30.375 120.4375 C29.62292826 139.13575757 29.62292826 139.13575757 32.375 157.4375 C33.695 157.1075 35.015 156.7775 36.375 156.4375 C37.40819813 157.6983012 38.42624379 158.97153258 39.4375 160.25 C40.29021484 161.31154297 40.29021484 161.31154297 41.16015625 162.39453125 C41.56105469 163.06871094 41.96195313 163.74289062 42.375 164.4375 C41.14565985 168.12552044 39.43640622 169.16106973 36.375 171.4375 C41.25164009 171.78583144 44.14550005 170.85435712 48.375 168.4375 C50.355 171.0775 52.335 173.7175 54.375 176.4375 C52.32224897 180.54300206 50.89501594 181.90748741 47.375 184.6875 C46.385 185.47640625 45.395 186.2653125 44.375 187.078125 C43.385 187.85671875 42.395 188.6353125 41.375 189.4375 C39.70734173 190.76959289 38.04062449 192.10286499 36.375 193.4375 C35.55902344 194.08847656 34.74304688 194.73945313 33.90234375 195.41015625 C29.36425567 199.05044638 24.87263611 202.74745049 20.375 206.4375 C18.31301828 208.12563434 16.25023632 209.81278748 14.1875 211.5 C13.26582031 212.25410156 12.34414063 213.00820313 11.39453125 213.78515625 C10.72808594 214.33042969 10.06164062 214.87570312 9.375 215.4375 C3.67420659 212.52893193 -0.26369945 209.08323319 -4.625 204.4375 C-5.45 203.6125 -6.275 202.7875 -7.125 201.9375 C-7.95 201.1125 -8.775 200.2875 -9.625 199.4375 C-10.17027344 198.95023438 -10.71554687 198.46296875 -11.27734375 197.9609375 C-20.6752239 189.28280747 -27.09030754 175.16802766 -27.73024178 162.32544518 C-27.78822303 159.65772109 -27.81423285 156.99130777 -27.83032227 154.32299805 C-27.84022186 153.30789658 -27.85012146 152.2927951 -27.86032104 151.24693298 C-27.89186282 147.89771849 -27.91666458 144.54848981 -27.94140625 141.19921875 C-27.96198209 138.87465551 -27.98297873 136.55009596 -28.00437927 134.22554016 C-28.05953479 128.1116332 -28.10897285 121.99769284 -28.15722656 115.88372803 C-28.20748918 109.64315829 -28.2631504 103.40263697 -28.31835938 97.16210938 C-28.42586122 84.92061429 -28.52732391 72.67907715 -28.625 60.4375 C-29.553125 60.9325 -30.48125 61.4275 -31.4375 61.9375 C-34.625 63.4375 -34.625 63.4375 -37.625 63.4375 C-38.945 60.4675 -40.265 57.4975 -41.625 54.4375 C-39.83463542 52.94010417 -38.04427083 51.44270833 -36.25390625 49.9453125 C-34.51694996 48.5152243 -34.51694996 48.5152243 -33.625 46.4375 C-35.23097325 46.88946245 -36.83472508 47.34932327 -38.4375 47.8125 C-39.33082031 48.06773437 -40.22414063 48.32296875 -41.14453125 48.5859375 C-43.82967896 49.39016661 -43.82967896 49.39016661 -46.625 51.4375 C-48.625 51.4375 -48.625 51.4375 -50.625 50.4375 C-53.76425806 45.5662375 -53.76425806 45.5662375 -53.37475586 42.40917969 C-52.06396988 38.96212415 -48.97119597 36.96526655 -46.1875 34.6875 C-45.55078369 34.15455322 -44.91406738 33.62160645 -44.25805664 33.07250977 C-39.95035152 29.48121774 -35.58003937 25.96918685 -31.1796875 22.4921875 C-28.70754481 20.50388925 -26.27834848 18.47481697 -23.8605957 16.42114258 C-22.74986208 15.47767542 -21.63643156 14.53737365 -20.52026367 13.6003418 C-17.84782044 11.35315843 -15.22161547 9.0809606 -12.66796875 6.69921875 C-4.96091694 -0.23173833 -4.96091694 -0.23173833 0 0 Z " fill="#093B59" transform="translate(586.625,241.5625)"/>
<path d="M0 0 C6.70624342 3.03876655 11.47475667 8.34344583 16 14 C17.27997555 15.0971219 18.57309181 16.17899628 19.875 17.25 C23.64381676 20.44927542 26.18943697 23.8884438 28.7734375 28.08203125 C29.9856708 30.12883484 29.9856708 30.12883484 32 32 C32.44988281 31.59910156 32.89976562 31.19820313 33.36328125 30.78515625 C38.57299146 26.1809835 43.91017888 21.75306058 49.30908203 17.37304688 C51.24854794 15.79817591 53.18485027 14.21945596 55.12109375 12.640625 C56.5598188 11.46865543 57.9986206 10.29678007 59.4375 9.125 C60.12392578 8.56538574 60.81035156 8.00577148 61.51757812 7.42919922 C62.79811154 6.38789675 64.08471494 5.35399625 65.37841797 4.32910156 C67.11791815 2.95188763 67.11791815 2.95188763 68.97265625 0.9921875 C71.82520859 -0.40385931 73.91776729 0.32873204 76.86376953 1.22119141 C80.34338043 2.48975812 83.64140585 4.00226684 86.9375 5.6875 C87.63480225 6.04199219 88.33210449 6.39648438 89.05053711 6.76171875 C97.16916105 10.99440062 103.41497348 15.990401 109.25390625 23.04296875 C111.03741946 25.04193993 112.91476091 26.63550349 115 28.3125 C123.55989232 35.62580606 128.37278271 45.59099573 129.3125 56.69140625 C130.1444224 75.62226264 122.51890135 92.03301677 110 106 C104.16442769 112.32187001 97.8238999 117.77166751 91 123 C94.49793975 131.45804081 98.19846356 139.70283339 102.6875 147.6875 C103.05544678 148.34556641 103.42339355 149.00363281 103.80249023 149.68164062 C107.22466817 155.65523291 110.27335885 160.54218881 117 163 C121.6943544 163.59025281 125.73426691 163.13286654 130 161 C132.97 164.96 132.97 164.96 136 169 C134 173 134 173 132 175 C133.94350596 176.2537118 133.94350596 176.2537118 135.9453125 175.44140625 C136.66460938 175.15136719 137.38390625 174.86132812 138.125 174.5625 C138.84945312 174.27503906 139.57390625 173.98757813 140.3203125 173.69140625 C140.87460937 173.46324219 141.42890625 173.23507812 142 173 C143.03613033 174.23734984 144.05347802 175.49044637 145.0625 176.75 C145.63097656 177.44609375 146.19945312 178.1421875 146.78515625 178.859375 C148 181 148 181 147.9453125 183.015625 C146.67708198 185.67786096 145.04820247 187.07430521 142.8125 189 C141.91144531 189.78375 141.01039063 190.5675 140.08203125 191.375 C139.05531608 192.25073749 138.02793807 193.12569828 137 194 C135.26530658 195.48644847 133.53162521 196.97406814 131.79833984 198.4621582 C130.59803785 199.48859077 129.39391081 200.51056692 128.18603516 201.52807617 C125.4127583 203.87315425 122.77071419 206.22928581 120.19921875 208.80078125 C114.31944444 214.68055556 114.31944444 214.68055556 110.7734375 215.5390625 C101.70264376 215.12238293 91.42241627 208.10957651 85 202 C85 201.34 85 200.68 85 200 C84.41089844 199.74992188 83.82179688 199.49984375 83.21484375 199.2421875 C80.70690295 197.83561753 79.37575422 196.34445666 77.5625 194.125 C75.60745494 191.80883197 73.87521603 189.90017282 71.5 188 C54.39961172 174.31968938 41.81541656 149.44624968 35 129 C35.13867261 133.10444167 35.28716103 137.2084704 35.4375 141.3125 C35.47681641 142.47974609 35.51613281 143.64699219 35.55664062 144.84960938 C35.59853516 145.96787109 35.64042969 147.08613281 35.68359375 148.23828125 C35.72025146 149.26993408 35.75690918 150.30158691 35.79467773 151.36450195 C35.90161242 154.10748258 35.90161242 154.10748258 37 157 C38.32 156.67 39.64 156.34 41 156 C42.98 158.64 44.96 161.28 47 164 C45.11656068 167.76687864 44.30867531 168.79421646 41 171 C45.87664009 171.34833144 48.77050005 170.41685712 53 168 C54.98 170.64 56.96 173.28 59 176 C57.24820763 179.50358473 56.69624116 180.541795 53.8671875 182.77734375 C52.91718872 183.53772949 52.91718872 183.53772949 51.94799805 184.31347656 C51.26390869 184.8494043 50.57981934 185.38533203 49.875 185.9375 C48.42041911 187.0974634 46.96599654 188.25762537 45.51171875 189.41796875 C44.7645459 190.01013184 44.01737305 190.60229492 43.24755859 191.21240234 C39.704699 194.03021877 36.19696252 196.89078288 32.6875 199.75 C31.36855895 200.82169996 30.0495501 201.89331648 28.73046875 202.96484375 C23.81090634 206.96507481 18.90323025 210.97976673 14 215 C8.03961836 212.21003412 4.53021865 208.4798253 0.265625 203.51171875 C-1.77250104 201.25221005 -3.82199596 199.40052901 -6.1875 197.5 C-15.08415218 189.91219923 -19.01557469 178.24190814 -21 167 C-21.09416059 165.44748963 -21.14542499 163.89190421 -21.15821838 162.33659363 C-21.17290161 160.97581192 -21.17290161 160.97581192 -21.18788147 159.58753967 C-21.19651466 158.11371071 -21.19651466 158.11371071 -21.20532227 156.61010742 C-21.21522186 155.56574524 -21.22512146 154.52138306 -21.23532104 153.44537354 C-21.26686909 149.99876155 -21.29166708 146.55213578 -21.31640625 143.10546875 C-21.33698155 140.71364487 -21.35797818 138.32182457 -21.37937927 135.93000793 C-21.4345404 129.63854888 -21.48397599 123.34705733 -21.53222656 117.05554199 C-21.58248507 110.63400383 -21.63814844 104.21251278 -21.69335938 97.79101562 C-21.80086807 85.19405094 -21.90251281 72.59704602 -22 60 C-22.93070312 60.31710937 -23.86140625 60.63421875 -24.8203125 60.9609375 C-27.55337008 61.85404968 -30.17401193 62.50129622 -33 63 C-34.32 60.03 -35.64 57.06 -37 54 C-34.36 51.69 -31.72 49.38 -29 47 C-34.38829402 47.45663509 -37.36196907 48.16564777 -42 51 C-44.03125 50.87109375 -44.03125 50.87109375 -46 50 C-47.046875 47.93359375 -47.046875 47.93359375 -47.75 45.4375 C-47.99234375 44.61121094 -48.2346875 43.78492188 -48.484375 42.93359375 C-48.65453125 42.29550781 -48.8246875 41.65742188 -49 41 C-42.89314532 35.80577543 -36.7866974 30.6161767 -30.5625 25.5625 C-25.70919117 21.61344667 -20.96152911 17.55234105 -16.22241211 13.46801758 C-10.8913172 8.88320206 -5.46895455 4.41980817 0 0 Z M38.375 46.375 C37.74335938 46.81585938 37.11171875 47.25671875 36.4609375 47.7109375 C35.97882813 48.13632812 35.49671875 48.56171875 35 49 C35 49.66 35 50.32 35 51 C38.81684226 49.44499019 41.19195732 46.96404505 44 44 C41.40878776 44 40.46916017 44.88409584 38.375 46.375 Z M46.6875 61.1875 C45.49157227 62.11272461 45.49157227 62.11272461 44.27148438 63.05664062 C42.79278213 64.20204413 41.3231393 65.35931119 39.8659668 66.53198242 C38.30056666 67.76353431 36.65726324 68.89515784 35 70 C34.58926429 72.67448518 34.3904769 75.1213189 34.3125 77.8125 C34.27906494 78.62114502 34.24562988 79.42979004 34.21118164 80.26293945 C33.7655388 92.83238266 33.91546602 105.4252455 34 118 C39.28416215 115.23115241 43.33078134 112.18854209 47.5 107.9375 C48.06460938 107.36241699 48.62921875 106.78733398 49.2109375 106.19482422 C59.13728617 95.83677087 66.14990168 82.9885894 66.4375 68.375 C66.34538475 64.50615935 66.07564505 61.31442525 64 58 C57.07870108 52.77490973 52.61559596 56.33991863 46.6875 61.1875 Z " fill="#093B59" transform="translate(383,242)"/>
<path d="M0 0 C3.32245684 2.70432534 6.23751544 5.66021726 8.6875 9.1875 C8.6875 9.8475 8.6875 10.5075 8.6875 11.1875 C9.27015625 11.44660156 9.8528125 11.70570313 10.453125 11.97265625 C16.71233551 15.3758284 20.81718047 21.31174567 24.5625 27.1875 C27.17498597 31.04207158 27.17498597 31.04207158 31.23828125 32.921875 C33.84813767 32.93734082 36.13182777 32.70447122 38.6875 32.1875 C41.1625 31.6925 41.1625 31.6925 43.6875 31.1875 C45.3375 34.1575 46.9875 37.1275 48.6875 40.1875 C46.2125 42.1675 46.2125 42.1675 43.6875 44.1875 C46.4094246 45.5484623 47.8706957 44.89116248 50.8125 44.25 C51.72257813 44.05535156 52.63265625 43.86070312 53.5703125 43.66015625 C54.26898438 43.50417969 54.96765625 43.34820312 55.6875 43.1875 C56.52628455 44.47563342 57.35836783 45.76813256 58.1875 47.0625 C58.6515625 47.78179687 59.115625 48.50109375 59.59375 49.2421875 C60.6875 51.1875 60.6875 51.1875 60.6875 53.1875 C58.765625 54.640625 58.765625 54.640625 55.9375 56.4375 C50.96705794 59.66268601 46.0878592 62.98489882 41.24633789 66.40087891 C37.81991197 68.81791811 34.3793559 71.21444045 30.93847656 73.61083984 C29.03921155 74.94114933 27.154657 76.28896365 25.2734375 77.64453125 C20.51688309 80.9339231 16.7759116 83.23712347 10.859375 82.66015625 C-0.80567497 80.12153926 -8.16140033 71.35198407 -16.3125 63.1875 C-16.88613281 62.63707031 -17.45976562 62.08664062 -18.05078125 61.51953125 C-22.25635198 57.46005975 -25.81844075 53.10072439 -29.3203125 48.421875 C-32.45039938 44.91126775 -35.0697105 43.32307704 -39.75 42.8125 C-45.63646517 43.43212791 -50.11134804 46.09137684 -54.3125 50.1875 C-65.33799888 65.69035883 -66.48593043 84.7189239 -63.6640625 103.13671875 C-61.09334073 116.83599834 -55.60544602 129.4400006 -47.79296875 140.953125 C-46.3125 143.1875 -46.3125 143.1875 -45.36328125 145.359375 C-43.98999794 147.74858165 -42.84367853 148.1199281 -40.3125 149.1875 C-39.26578125 149.7340625 -38.2190625 150.280625 -37.140625 150.84375 C-24.41708205 157.44239123 -13.31461467 160.56608569 0.8671875 156.22265625 C9.44909256 153.07278805 16.60415756 148.8791745 23.53125 142.921875 C25.6875 141.1875 25.6875 141.1875 29.6875 139.1875 C31.9975 141.1675 34.3075 143.1475 36.6875 145.1875 C35.6875 147.1875 34.6875 149.1875 33.6875 151.1875 C33.0275 151.1875 32.3675 151.1875 31.6875 151.1875 C31.45289063 151.73921875 31.21828125 152.2909375 30.9765625 152.859375 C29.35901842 155.78075764 27.32299805 157.98324497 25.0625 160.4375 C23.83660156 161.77554688 23.83660156 161.77554688 22.5859375 163.140625 C21.95945312 163.81609375 21.33296875 164.4915625 20.6875 165.1875 C28.19608599 161.49809602 34.35598117 156.61958812 40.6875 151.1875 C43.3275 153.1675 45.9675 155.1475 48.6875 157.1875 C47.33577153 161.27129341 45.61813758 163.56433519 42.5 166.5 C39.59280522 169.30518795 36.80812663 172.11271325 34.1875 175.1875 C20.24332656 191.30147617 3.09320282 204.44794951 -18.3125 208.1875 C-19.0034375 208.31640625 -19.694375 208.4453125 -20.40625 208.578125 C-35.68464514 210.95754719 -50.53694429 207.99958799 -64.3125 201.1875 C-65.1684375 200.7646875 -66.024375 200.341875 -66.90625 199.90625 C-76.15999734 194.66617621 -83.18543203 186.65942323 -90.49682617 179.06665039 C-92.01685735 177.49347841 -93.55863895 175.94136105 -95.10546875 174.39453125 C-112.54282121 156.95717879 -122.60407866 132.12232243 -122.75 107.5625 C-122.36934449 73.33627538 -102.67764319 48.07744005 -79.14453125 24.9296875 C-75.6367178 21.53315641 -72.08114122 18.29069932 -68.3125 15.1875 C-67.82587891 14.7764502 -67.33925781 14.36540039 -66.83789062 13.94189453 C-47.62217142 -2.22617029 -23.94625647 -13.10266864 0 0 Z " fill="#093B59" transform="translate(273.3125,247.8125)"/>
<path d="M0 0 C7.03252878 3.78188149 12.70900819 9.34890452 17.69921875 15.50390625 C19.26197082 17.41254388 19.26197082 17.41254388 22.171875 19.16796875 C22.83832031 18.55050781 23.50476563 17.93304688 24.19140625 17.296875 C42.03275363 0.90279776 42.03275363 0.90279776 48.171875 -1.83203125 C52.98311496 2.20320227 57.30430219 6.21264108 61.171875 11.16796875 C64.7960114 9.64896853 67.029499 7.48726421 69.734375 4.66796875 C72.1680735 2.13987722 74.24196901 0.12123941 77.171875 -1.83203125 C86.00214931 -1.83203125 91.12243407 4.05504545 97.01098633 9.87963867 C99.41788558 12.29007592 101.79906217 14.72397154 104.171875 17.16796875 C105.23341797 16.0696875 105.23341797 16.0696875 106.31640625 14.94921875 C113.75564843 7.70333581 123.86971065 -1.2455452 134.625 -2.109375 C141.92723965 -1.92417327 149.12826 -0.04538139 156.26171875 1.390625 C163.56298587 2.81506396 170.10930532 4.01114359 177.484375 2.48046875 C180.171875 2.16796875 180.171875 2.16796875 182.046875 3.48046875 C183.171875 5.16796875 183.171875 5.16796875 183.171875 7.16796875 C181.54561096 8.55029318 179.8793748 9.8873439 178.171875 11.16796875 C178.87054687 11.07257812 179.56921875 10.9771875 180.2890625 10.87890625 C181.19914063 10.76804687 182.10921875 10.6571875 183.046875 10.54296875 C183.95179688 10.42695312 184.85671875 10.3109375 185.7890625 10.19140625 C186.57539062 10.18367188 187.36171875 10.1759375 188.171875 10.16796875 C189.161875 11.15796875 189.161875 11.15796875 190.171875 12.16796875 C189.9629713 14.74107479 189.41336207 15.91119622 187.640625 17.79614258 C186.9909375 18.31716553 186.34125 18.83818848 185.671875 19.375 C184.95314209 19.95878418 184.23440918 20.54256836 183.49389648 21.14404297 C182.72762939 21.75006348 181.9613623 22.35608398 181.171875 22.98046875 C180.01570679 23.91270264 180.01570679 23.91270264 178.83618164 24.86376953 C176.62339298 26.64304843 174.40041858 28.40848203 172.171875 30.16796875 C171.13933594 30.98394531 170.10679687 31.79992187 169.04296875 32.640625 C167.09547993 34.16297982 165.14192577 35.67499581 163.171875 37.16796875 C163.914375 37.91046875 164.656875 38.65296875 165.421875 39.41796875 C166.329375 40.32546875 167.236875 41.23296875 168.171875 42.16796875 C168.935 42.88984375 169.698125 43.61171875 170.484375 44.35546875 C172.171875 46.16796875 172.171875 46.16796875 172.171875 48.16796875 C173.06519531 48.54501953 173.06519531 48.54501953 173.9765625 48.9296875 C178.94250331 51.73076088 182.61036975 57.77367789 184.171875 63.16796875 C186.20669852 72.3246746 185.40981082 79.7921074 181.171875 88.16796875 C174.57043006 97.22615396 164.75591318 100.12247896 154.171875 102.16796875 C150.01492128 102.57618559 145.90924626 102.64620866 141.734375 102.60546875 C140.64125 102.59789551 139.548125 102.59032227 138.421875 102.58251953 C126.54128948 102.34002248 116.48041103 100.01634227 107.171875 92.16796875 C104.921875 89.54296875 104.921875 89.54296875 103.171875 87.16796875 C102.305625 86.50796875 101.439375 85.84796875 100.546875 85.16796875 C97.9055932 82.94373144 97.31525095 81.35683379 96.171875 78.16796875 C98.85685891 75.62363332 101.54532095 73.08300161 104.234375 70.54296875 C104.98654297 69.83011719 105.73871094 69.11726563 106.51367188 68.3828125 C110.00003623 65.09265047 113.49826029 61.85497485 117.16796875 58.76953125 C120.15739409 56.51637658 120.15739409 56.51637658 121.171875 54.16796875 C120.49125 54.00296875 119.810625 53.83796875 119.109375 53.66796875 C115.43781662 51.79313043 113.55316516 49.34051979 110.9453125 46.203125 C108.58257557 43.49170222 105.98944234 41.39581269 103.171875 39.16796875 C102.511875 38.50796875 101.851875 37.84796875 101.171875 37.16796875 C100.41261719 37.80605469 99.65335938 38.44414063 98.87109375 39.1015625 C97.87722656 39.92785156 96.88335938 40.75414062 95.859375 41.60546875 C94.87324219 42.42917969 93.88710938 43.25289062 92.87109375 44.1015625 C90.171875 46.16796875 90.171875 46.16796875 87.171875 47.16796875 C86.84574219 46.60207031 86.51960937 46.03617188 86.18359375 45.453125 C85.74660156 44.71964844 85.30960938 43.98617187 84.859375 43.23046875 C84.43011719 42.49957031 84.00085938 41.76867187 83.55859375 41.015625 C82.22077246 38.86819463 82.22077246 38.86819463 79.171875 38.16796875 C77.484375 35.60546875 77.484375 35.60546875 76.171875 33.16796875 C72.88111504 33.54701083 72.88111504 33.54701083 70.171875 35.16796875 C70.01299408 37.45785656 69.92049427 39.75240316 69.85546875 42.046875 C69.83468765 42.73353745 69.81390656 43.42019989 69.79249573 44.12767029 C69.72693357 46.3284981 69.66808485 48.5294485 69.609375 50.73046875 C69.56619608 52.21941389 69.522582 53.70834648 69.47851562 55.19726562 C69.3712457 58.85403428 69.26999728 62.51094193 69.171875 66.16796875 C70.161875 65.83796875 71.151875 65.50796875 72.171875 65.16796875 C73.491875 66.81796875 74.811875 68.46796875 76.171875 70.16796875 C75.181875 72.14796875 75.181875 72.14796875 74.171875 74.16796875 C77.141875 73.67296875 77.141875 73.67296875 80.171875 73.16796875 C82.234375 75.48046875 82.234375 75.48046875 84.171875 78.16796875 C82.83027605 82.19276561 80.13113245 83.77288334 76.859375 86.23046875 C73.07246786 89.11489551 69.31556798 91.99146773 65.75 95.1484375 C65.21930908 95.61435303 64.68861816 96.08026855 64.1418457 96.56030273 C62.6836295 97.85218426 61.23793615 99.15816033 59.79296875 100.46484375 C57.171875 102.16796875 57.171875 102.16796875 54.51953125 102.140625 C51.89355524 101.05265824 50.86860169 100.10652376 49.171875 97.85546875 C47.36391226 95.56661566 45.99254245 94.03674981 43.609375 92.29296875 C38.39070875 87.74336227 34.69202145 80.05127851 33.95863342 73.16598511 C33.84657617 70.86613187 33.79104619 68.5718698 33.7578125 66.26953125 C33.73844635 65.43457123 33.7190802 64.59961121 33.6991272 63.73934937 C33.63967886 61.09065749 33.59308606 58.44192132 33.546875 55.79296875 C33.50866318 53.98956511 33.46960961 52.18617909 33.4296875 50.3828125 C33.33400619 45.97800891 33.24984789 41.57311995 33.171875 37.16796875 C28.6324053 38.57642115 25.92287383 39.92040281 22.484375 43.23046875 C14.46981095 50.72757597 5.87165291 57.48739855 -2.828125 64.16796875 C3.22966614 64.67278468 7.18369913 64.16038346 12.34765625 60.84765625 C14.171875 60.16796875 14.171875 60.16796875 16.32421875 60.88671875 C18.78740228 62.59480373 19.28582358 64.36213926 20.171875 67.16796875 C17.861875 68.81796875 15.551875 70.46796875 13.171875 72.16796875 C14.09419922 71.71744141 14.09419922 71.71744141 15.03515625 71.2578125 C15.84339844 70.87753906 16.65164063 70.49726562 17.484375 70.10546875 C18.28488281 69.72261719 19.08539062 69.33976562 19.91015625 68.9453125 C22.171875 68.16796875 22.171875 68.16796875 25.171875 69.16796875 C27.171875 72.16796875 27.171875 72.16796875 27.01391602 74.16601562 C25.97266983 76.64157918 24.83572125 77.58387282 22.69921875 79.19921875 C21.9719458 79.75722168 21.24467285 80.31522461 20.49536133 80.89013672 C19.70798584 81.47682129 18.92061035 82.06350586 18.109375 82.66796875 C17.30459717 83.27656738 16.49981934 83.88516602 15.6706543 84.51220703 C13.9995524 85.77499206 12.32576552 87.0342312 10.64941406 88.29003906 C8.29155594 90.07725276 5.97378663 91.90510268 3.6640625 93.75390625 C2.27096479 94.85042745 0.87774163 95.94678929 -0.515625 97.04296875 C-1.14927979 97.56052734 -1.78293457 98.07808594 -2.43579102 98.61132812 C-5.65454455 101.0999627 -7.38719839 102.11349313 -11.52734375 102.625 C-14.67193066 102.18959566 -16.36609178 101.73943485 -18.953125 99.98046875 C-19.57445312 99.57441406 -20.19578125 99.16835937 -20.8359375 98.75 C-23.36946427 96.73808168 -25.55986322 94.47386384 -27.828125 92.16796875 C-29.12169922 90.97880859 -29.12169922 90.97880859 -30.44140625 89.765625 C-42.07843096 78.83591583 -50.8557707 64.22302077 -52.06640625 47.96875 C-52.33203347 35.4842706 -49.70136429 28.48630073 -41.1003418 19.4987793 C-39.68157521 18.04996106 -38.25500421 16.6087979 -36.828125 15.16796875 C-36.13203125 14.41128906 -35.4359375 13.65460938 -34.71875 12.875 C-25.69268656 3.23352315 -13.44943256 -5.55180065 0 0 Z M133.171875 24.16796875 C135.56696838 27.06729232 137.48432743 27.66965151 141.171875 28.16796875 C138.54988726 26.01419311 136.52783328 24.76724701 133.171875 24.16796875 Z M-19.828125 30.16796875 C-20.64853586 36.00788259 -20.1790037 41.73156177 -17.828125 47.16796875 C-12.84799739 45.65883917 -9.58552558 42.61135026 -5.828125 39.16796875 C-6.29793645 34.15664665 -8.57329603 29.94102468 -11.828125 26.16796875 C-16.21476264 24.91464371 -17.62234643 26.48538687 -19.828125 30.16796875 Z M26.171875 27.16796875 C26.831875 27.82796875 27.491875 28.48796875 28.171875 29.16796875 C28.501875 28.50796875 28.831875 27.84796875 29.171875 27.16796875 C28.181875 27.16796875 27.191875 27.16796875 26.171875 27.16796875 Z M-11.828125 56.16796875 C-11.498125 56.82796875 -11.168125 57.48796875 -10.828125 58.16796875 C-10.498125 57.50796875 -10.168125 56.84796875 -9.828125 56.16796875 C-10.488125 56.16796875 -11.148125 56.16796875 -11.828125 56.16796875 Z M127.171875 58.16796875 C126.841875 59.48796875 126.511875 60.80796875 126.171875 62.16796875 C127.89713542 62.8515625 129.62239583 63.53515625 131.34765625 64.21875 C133.171875 65.16796875 133.171875 65.16796875 134.54614258 66.640625 C136.36127138 68.34590293 137.63435006 68.86278724 140.0078125 69.5546875 C141.10996094 69.87856445 141.10996094 69.87856445 142.234375 70.20898438 C142.9975 70.42232422 143.760625 70.63566406 144.546875 70.85546875 C145.30226563 71.08041016 146.05765625 71.30535156 146.8359375 71.53710938 C150.70391187 72.64949012 154.10474506 73.46773729 158.171875 73.16796875 C155.025351 70.61239463 151.80814294 68.93735193 148.12890625 67.25 C146.97326172 66.71826172 145.81761719 66.18652344 144.62695312 65.63867188 C144.02955322 65.36676025 143.43215332 65.09484863 142.81665039 64.81469727 C140.97755283 63.97736264 139.14188726 63.13284628 137.30664062 62.28710938 C132.41774152 59.56628458 132.41774152 59.56628458 127.171875 58.16796875 Z " fill="#093A58" transform="translate(736.828125,51.83203125)"/>
<path d="M0 0 C3.72847411 2.13751419 6.35202634 4.90399624 9.25390625 8.04296875 C9.81787109 8.61789062 10.38183594 9.1928125 10.96289062 9.78515625 C20.78527478 20.30831869 20.2383009 31.75966322 20.08203125 45.33203125 C20.07455966 47.24587408 20.06887107 49.15972463 20.06488037 51.07357788 C20.04969629 56.08125379 20.01047767 61.08845668 19.96606445 66.09594727 C19.92495491 71.21754561 19.90683602 76.33922129 19.88671875 81.4609375 C19.84397568 91.48848769 19.77581306 101.5156887 19.69140625 111.54296875 C21.01140625 111.21296875 22.33140625 110.88296875 23.69140625 110.54296875 C25.75390625 112.85546875 25.75390625 112.85546875 27.69140625 115.54296875 C26.69140625 118.54296875 26.69140625 118.54296875 24.69140625 119.54296875 C28.15640625 119.04796875 28.15640625 119.04796875 31.69140625 118.54296875 C33.25390625 120.29296875 33.25390625 120.29296875 34.69140625 122.54296875 C34.43830045 125.1085705 33.93453004 126.28445591 32.16015625 128.17114258 C31.185625 128.952677 31.185625 128.952677 30.19140625 129.75 C29.11391113 130.62579712 29.11391113 130.62579712 28.01464844 131.51928711 C27.24797852 132.12522705 26.48130859 132.73116699 25.69140625 133.35546875 C24.91700195 133.97623291 24.14259766 134.59699707 23.34472656 135.23657227 C21.81546965 136.46058796 20.28331583 137.6809946 18.74804688 138.89746094 C17.05428545 140.25263093 15.39170717 141.64668146 13.73828125 143.05078125 C12.9803125 143.68757812 12.22234375 144.324375 11.44140625 144.98046875 C10.8175 145.51542969 10.19359375 146.05039063 9.55078125 146.6015625 C7.69140625 147.54296875 7.69140625 147.54296875 5.3359375 147.59375 C1.4611076 146.05412039 -0.67186521 143.39623276 -3.37109375 140.29296875 C-3.88736328 139.71933594 -4.40363281 139.14570313 -4.93554688 138.5546875 C-7.84102302 135.30499571 -10.61872055 131.97465351 -13.30859375 128.54296875 C-14.16582031 129.41179687 -15.02304687 130.280625 -15.90625 131.17578125 C-19.35044024 134.65521905 -22.82376352 138.10428811 -26.30859375 141.54296875 C-27.04980469 142.2803125 -27.79101562 143.01765625 -28.5546875 143.77734375 C-30.30859375 145.41796875 -30.30859375 145.41796875 -33.30859375 147.54296875 C-41.5797807 146.95896048 -49.05673004 139.48586715 -54.30859375 133.54296875 C-54.30859375 132.88296875 -54.30859375 132.22296875 -54.30859375 131.54296875 C-54.90800781 131.28257812 -55.50742187 131.0221875 -56.125 130.75390625 C-63.58645238 126.6160704 -66.47958955 117.05359938 -69.30859375 109.54296875 C-69.83646484 110.28740234 -69.83646484 110.28740234 -70.375 111.046875 C-76.22709 119.0992286 -82.88625662 125.12217507 -90.74511719 131.19213867 C-95.69517581 135.02178929 -100.48313127 139.01430979 -105.22119141 143.10253906 C-109.34703539 146.64644943 -111.52385044 147.91701646 -117.09765625 147.81640625 C-127.67435742 146.50833367 -136.09170015 136.39819666 -142.30859375 128.54296875 C-150.33118964 117.74998004 -155.85899854 105.32156613 -154.30859375 91.54296875 C-151.78132793 75.02384031 -142.03664801 67.12358841 -129.52636719 57.32861328 C-127.37284688 55.59470228 -125.30977154 53.79336651 -123.25390625 51.9453125 C-112.79091001 42.68099474 -112.79091001 42.68099474 -106.49609375 43.04296875 C-103.86328125 43.65625 -103.86328125 43.65625 -101.30859375 44.54296875 C-100.44492187 44.80464844 -99.58125 45.06632812 -98.69140625 45.3359375 C-90.02230642 48.35299504 -83.91129179 53.42602799 -78.30859375 60.54296875 C-77.50421875 61.30609375 -76.69984375 62.06921875 -75.87109375 62.85546875 C-70.99837752 67.96587846 -67.07888056 73.63885021 -65.30859375 80.54296875 C-64.88449219 79.91390625 -64.46039062 79.28484375 -64.0234375 78.63671875 C-52.25237316 61.45872596 -37.86153799 48.78465923 -17.30859375 43.54296875 C-16.64859375 43.54296875 -15.98859375 43.54296875 -15.30859375 43.54296875 C-15.63859375 41.56296875 -15.96859375 39.58296875 -16.30859375 37.54296875 C-19.27859375 38.53296875 -19.27859375 38.53296875 -22.30859375 39.54296875 C-23.87109375 37.79296875 -23.87109375 37.79296875 -25.30859375 35.54296875 C-25.18359375 33.41796875 -25.18359375 33.41796875 -24.30859375 31.54296875 C-23.31859375 30.88296875 -22.32859375 30.22296875 -21.30859375 29.54296875 C-24.27859375 30.20296875 -27.24859375 30.86296875 -30.30859375 31.54296875 C-33.30859375 26.79296875 -33.30859375 26.79296875 -33.30859375 24.54296875 C-31.578125 22.984375 -31.578125 22.984375 -29.12109375 21.10546875 C-24.88345433 17.80551976 -20.76358629 14.40797547 -16.68359375 10.91796875 C-15.57767447 9.98336642 -14.47092303 9.04974776 -13.36328125 8.1171875 C-11.52560386 6.56855655 -9.69506607 5.01131052 -7.87890625 3.4375 C-6.85410156 2.59251953 -6.85410156 2.59251953 -5.80859375 1.73046875 C-5.24140625 1.24964844 -4.67421875 0.76882812 -4.08984375 0.2734375 C-2.30859375 -0.45703125 -2.30859375 -0.45703125 0 0 Z M-124.30859375 65.54296875 C-124.96859375 66.86296875 -125.62859375 68.18296875 -126.30859375 69.54296875 C-124.98859375 68.22296875 -123.66859375 66.90296875 -122.30859375 65.54296875 C-122.96859375 65.54296875 -123.62859375 65.54296875 -124.30859375 65.54296875 Z M-32.30859375 75.54296875 C-37.45631592 82.01061968 -37.88683059 87.54227352 -37.30859375 95.54296875 C-35.98505791 102.55666653 -33.00656142 108.49174893 -29.30859375 114.54296875 C-28.09543693 113.67466869 -26.88836928 112.79786099 -25.68359375 111.91796875 C-25.01070312 111.43070313 -24.3378125 110.9434375 -23.64453125 110.44140625 C-22.87367188 109.81492188 -22.1028125 109.1884375 -21.30859375 108.54296875 C-20.23609375 107.80046875 -19.16359375 107.05796875 -18.05859375 106.29296875 C-14.40396839 102.57351633 -14.70317554 98.38575534 -14.73568726 93.39364624 C-14.78201295 91.31736782 -14.85704939 89.24333174 -14.93359375 87.16796875 C-14.96372074 85.7500564 -14.99109178 84.33208266 -15.015625 82.9140625 C-15.08143132 79.45574662 -15.18479716 75.99975057 -15.30859375 72.54296875 C-21.19022181 69.60215472 -27.31620907 71.99403442 -32.30859375 75.54296875 Z M-117.30859375 73.54296875 C-121.72415615 81.20285684 -121.43348091 89.47232357 -119.546875 97.9765625 C-117.43322438 104.66839706 -115.42844711 110.63285445 -109.24609375 114.41796875 C-106.36592494 115.72179238 -106.36592494 115.72179238 -103.30859375 115.54296875 C-98.75869627 105.75158938 -101.3360589 94.88627168 -104.04296875 84.91796875 C-105.63729051 80.66644406 -107.49610419 76.78905533 -111.30859375 74.16796875 C-113.59568343 73.34411875 -113.59568343 73.34411875 -117.30859375 73.54296875 Z M-16.30859375 115.54296875 C-18.34979163 117.15891707 -20.34932312 118.82860695 -22.30859375 120.54296875 C-22.30859375 121.20296875 -22.30859375 121.86296875 -22.30859375 122.54296875 C-19.42421596 121.24997181 -17.43639954 119.88355512 -15.30859375 117.54296875 C-15.63859375 116.88296875 -15.96859375 116.22296875 -16.30859375 115.54296875 Z M-96.30859375 120.54296875 C-97.29859375 122.02796875 -97.29859375 122.02796875 -98.30859375 123.54296875 C-97.31859375 123.54296875 -96.32859375 123.54296875 -95.30859375 123.54296875 C-95.63859375 122.55296875 -95.96859375 121.56296875 -96.30859375 120.54296875 Z " fill="#093A58" transform="translate(657.30859375,6.45703125)"/>
<path d="M0 0 C3.81537933 1.77944162 6.07119646 3.93806903 9 7 C9.96873047 7.90298828 9.96873047 7.90298828 10.95703125 8.82421875 C17.59402363 15.09180524 21.81842781 21.40137437 22.12025452 30.70794678 C22.12314669 32.22424206 22.12051057 33.74055398 22.11352539 35.25683594 C22.11367142 36.08647354 22.11381744 36.91611115 22.1139679 37.77088928 C22.11327212 40.5087446 22.10549539 43.24653159 22.09765625 45.984375 C22.09579088 47.88437869 22.09436754 49.78438286 22.09336853 51.68438721 C22.08955273 56.68208141 22.07973041 61.67974649 22.06866455 66.6774292 C22.05843031 71.77843838 22.05386659 76.87945226 22.04882812 81.98046875 C22.03810732 91.98699195 22.02104212 101.99349355 22 112 C23.98 111.505 23.98 111.505 26 111 C27.32 112.98 28.64 114.96 30 117 C29.01 117.99 28.02 118.98 27 120 C29.97 119.505 29.97 119.505 33 119 C32.67 117.865625 32.34 116.73125 32 115.5625 C28.94591107 101.53139578 30.70433265 88.48120957 37.625 75.9375 C47.35553138 60.84672553 62.9962552 48.28594411 80.8359375 44.37890625 C81.55007813 44.25386719 82.26421875 44.12882812 83 44 C83 42.02 83 40.04 83 38 C81.02 38.66 79.04 39.32 77 40 C75.4375 37.6875 75.4375 37.6875 74 35 C75 32 75 32 78 30 C75.03 30.66 72.06 31.32 69 32 C67 28 67 28 67.20825195 25.91430664 C68.57532539 22.60896504 71.48394624 20.65375811 74.1875 18.4375 C74.80665283 17.91953857 75.42580566 17.40157715 76.0637207 16.86791992 C78.03161828 15.23152041 80.01292703 13.61304707 82 12 C82.65484375 11.46729492 83.3096875 10.93458984 83.984375 10.38574219 C85.87851081 8.85243925 87.78025673 7.32945894 89.6875 5.8125 C90.27490967 5.34320068 90.86231934 4.87390137 91.4675293 4.39038086 C93.97418552 2.42560527 95.95259962 1.01580013 99 0 C107.72716962 5.59677182 116.75492932 15.83302635 119.09326172 26.07177734 C120.61089246 34.11184368 120.24584752 42.3284615 120.1953125 50.4765625 C120.19157605 52.25588827 120.18873207 54.03521611 120.18673706 55.81454468 C120.17915031 60.46695777 120.15954516 65.11924329 120.1373291 69.77160645 C120.11676309 74.53131383 120.10771248 79.29104211 120.09765625 84.05078125 C120.07629397 93.36724313 120.04221885 102.6836109 120 112 C120.99 111.67 121.98 111.34 123 111 C124.32 112.65 125.64 114.3 127 116 C126.01 117.98 126.01 117.98 125 120 C127.97 119.505 127.97 119.505 131 119 C132.32 120.98 133.64 122.96 135 125 C127.34639195 132.14219184 119.29559174 138.62681239 111 145 C110.30648437 145.62132812 109.61296875 146.24265625 108.8984375 146.8828125 C107 148 107 148 104.6015625 148.046875 C100.99467401 146.59545441 98.86481993 144.12286915 96.375 141.25 C95.89804687 140.7240625 95.42109375 140.198125 94.9296875 139.65625 C88 131.87960069 88 131.87960069 88 128 C84.0551186 131.27746944 80.29041601 134.64752944 76.78515625 138.39453125 C76.22272217 138.9872583 75.66028809 139.57998535 75.08081055 140.19067383 C73.95383745 141.38603631 72.84156427 142.59545013 71.74536133 143.8190918 C70.22915081 145.41504187 68.83577391 146.78455156 67 148 C60.15818139 148.17365022 54.88615817 143.36170745 50 139 C45.79767763 134.85289062 41.88243728 130.44481476 38 126 C32.81144698 129.28909859 28.14942535 133.06585097 23.4375 137 C21.25827782 138.81002294 19.0788841 140.61947102 16.89013672 142.41796875 C15.31715376 143.73454452 13.79408918 145.11047903 12.28515625 146.5 C10 148 10 148 7.40625 147.984375 C4.57632507 146.82667844 3.39694861 145.63013363 1.5 143.25 C-0.47506803 140.83032791 -2.29942595 138.72909081 -4.625 136.625 C-11.15300335 129.40983841 -13.15873875 121.48030525 -13.11352539 112.01855469 C-13.11367142 111.2181778 -13.11381744 110.4178009 -13.1139679 109.59317017 C-13.1132723 106.95271069 -13.1054964 104.31232212 -13.09765625 101.671875 C-13.09579082 99.83913207 -13.09436751 98.00638863 -13.09336853 96.17364502 C-13.08955322 91.35350158 -13.07973133 86.53338835 -13.06866455 81.71325684 C-13.05842925 76.79321705 -13.05386637 71.87317237 -13.04882812 66.953125 C-13.03810819 57.30207007 -13.02104359 47.65103755 -13 38 C-14.1446875 38.495 -14.1446875 38.495 -15.3125 39 C-18 40 -18 40 -21 40 C-22.34771696 37.78023089 -23.04398726 36.49852224 -22.8125 33.875 C-22 32 -22 32 -19 30 C-21.97 30.66 -24.94 31.32 -28 32 C-28.99 30.02 -29.98 28.04 -31 26 C-21.07301754 16.80266035 -10.73527293 8.24362934 0 0 Z M64.5625 79 C60.66795624 86.47752402 61.43757163 93.74460684 63.75 101.625 C65.35109421 106.50261916 67.20303731 110.70466444 70 115 C72.09495884 113.7430247 74.0305278 112.43919978 76 111 C76.68376709 110.52103271 77.36753418 110.04206543 78.07202148 109.54858398 C81.74369285 106.52303169 83.747554 104.31320288 84.66259766 99.55322266 C84.82298838 95.52614249 84.7487795 91.58433604 84.5625 87.5625 C84.53089204 86.16218627 84.50286717 84.76178684 84.47851562 83.36132812 C84.89008478 77.28885033 84.89008478 77.28885033 83 72 C75.26300838 71.32131652 69.57863304 72.8262978 64.5625 79 Z M83 116 C81.02 118.31 79.04 120.62 77 123 C80.23475448 121.38262276 81.70572021 120.52370777 84 118 C83.67 117.34 83.34 116.68 83 116 Z " fill="#093A59" transform="translate(221,6)"/>
<path d="M0 0 C6.48373713 5.75818454 12.76322021 11.90805053 16 20 C19.63 19.67 23.26 19.34 27 19 C28.5625 21.3125 28.5625 21.3125 30 24 C29 27 29 27 27 28 C29.31 27.67 31.62 27.34 34 27 C37.03000414 30.39360464 37.03000414 30.39360464 36.90600586 32.8996582 C35.59817041 35.93153867 33.65609204 37.00951942 30.94140625 38.85546875 C29.91595703 39.55994141 28.89050781 40.26441406 27.83398438 40.99023438 C26.21459961 42.07788086 26.21459961 42.07788086 24.5625 43.1875 C23.48677734 43.92419922 22.41105469 44.66089844 21.30273438 45.41992188 C10.83819577 52.56050785 10.83819577 52.56050785 4 52 C-1.49461314 49.3204883 -5.40817872 46.00323071 -9.625 41.625 C-10.1715625 41.07328125 -10.718125 40.5215625 -11.28125 39.953125 C-13.89865441 37.28562672 -16.36197294 34.58554925 -18.68359375 31.65625 C-20.83793775 28.72837589 -20.83793775 28.72837589 -24.4375 27.875 C-28.92041349 28.03229521 -30.62836923 29.07792 -34 32 C-41.62024743 41.73698283 -40.90876688 53.22010928 -40 65 C-39.1796188 69.628628 -37.88777606 73.70267128 -36 78 C-35.56429687 78.99644531 -35.12859375 79.99289063 -34.6796875 81.01953125 C-31.55552594 87.39589378 -28.14737853 91.44226518 -22 95 C-20.948125 95.61875 -19.89625 96.2375 -18.8125 96.875 C-10.66092583 99.28038254 -2.52761693 99.08784971 5.06640625 95.14453125 C9.07862841 92.76961995 12.85988143 90.48902064 16 87 C18.4375 87.75 18.4375 87.75 21 89 C21.90625 90.78125 21.90625 90.78125 22 93 C20.34765625 95.359375 20.34765625 95.359375 18.0625 97.75 C17.31097656 98.54921875 16.55945313 99.3484375 15.78515625 100.171875 C15.19605469 100.77515625 14.60695313 101.3784375 14 102 C19.46926127 99.1185719 19.46926127 99.1185719 24 95 C27.47899158 96.39159663 28.48052501 97.63251488 30 101 C29.57589844 101.4125 29.15179688 101.825 28.71484375 102.25 C25.54635116 105.36974655 22.53152878 108.51789397 19.6875 111.9375 C11.3905226 121.49384004 -0.23561142 129.89913805 -13.1628418 131.22119141 C-28.78549213 132.00390601 -39.91659324 129.48118708 -52 119 C-66.53935922 105.35651914 -77.2435163 88.51488376 -78.06640625 68.1171875 C-77.57749098 45.16692957 -63.91182414 28.42546399 -48.15039062 13.24169922 C-35.47225409 1.30249549 -17.11881412 -11.14821955 0 0 Z " fill="#083A58" transform="translate(86,23)"/>
<path d="M0 0 C2.7279202 2.01880924 5.00136598 4.3353586 7.3125 6.8125 C7.90611328 7.41642578 8.49972656 8.02035156 9.11132812 8.64257812 C11.78541639 11.41206307 14.17805078 14.12806869 16.23046875 17.390625 C17.79246731 20.27682254 17.79246731 20.27682254 21 20.9375 C23.62219611 20.99212909 25.53983337 20.85159614 28 20 C29.5625 21.75 29.5625 21.75 31 24 C30.6875 26.25 30.6875 26.25 30 28 C31.32 28 32.64 28 34 28 C34.66 28 35.32 28 36 28 C37.6875 30.3125 37.6875 30.3125 39 33 C37.60621614 37.18135158 34.62413224 38.48901449 31.0625 40.75 C29.68649947 41.63646971 28.31150084 42.52449649 26.9375 43.4140625 C26.26332031 43.85008789 25.58914063 44.28611328 24.89453125 44.73535156 C22.36614747 46.4231129 19.97558718 48.27748013 17.5625 50.125 C14.02546851 52.58224465 11.34981544 54.08214005 6.98046875 53.59375 C-1.70300851 50.99041954 -7.49745112 43.56429839 -13.30078125 37.0234375 C-17.57450055 31.92555081 -17.57450055 31.92555081 -23.375 29 C-27.97693892 29 -29.57868397 29.95883019 -33 33 C-39.86398169 42.91464022 -40.04667702 53.90804323 -38.53515625 65.59375 C-36.45604469 76.71515151 -32.62458861 87.66737189 -23.05078125 94.36328125 C-15.63101448 99.2320746 -8.87324834 100.04159947 0 99 C6.84000448 96.5934813 12.74118577 92.96665789 18 88 C21.47899158 89.39159663 22.48052501 90.63251488 24 94 C23.4946875 94.48210937 22.989375 94.96421875 22.46875 95.4609375 C21.8190625 96.09257813 21.169375 96.72421875 20.5 97.375 C19.8503125 98.00148438 19.200625 98.62796875 18.53125 99.2734375 C16.77882569 100.86475907 16.77882569 100.86475907 17 103 C19.64 100.69 22.28 98.38 25 96 C29.68286988 97.44088304 29.68286988 97.44088304 30.97265625 99.71484375 C31.00963083 102.804862 29.58365119 104.08237777 27.53320312 106.26293945 C27.02724609 106.77429443 26.52128906 107.28564941 26 107.8125 C25.48888672 108.34512451 24.97777344 108.87774902 24.45117188 109.42651367 C23.43236512 110.48476538 22.40836674 111.53804677 21.37890625 112.5859375 C20.26048402 113.73287475 19.17223669 114.90918265 18.09375 116.09375 C9.90980843 124.91956934 -1.41911543 131.58323678 -13.53125 132.37890625 C-22.62089009 132.71753282 -30.81277798 132.35461305 -39 128 C-39.72703125 127.62230469 -40.4540625 127.24460938 -41.203125 126.85546875 C-58.18303643 116.74692436 -69.50822086 99.58378835 -75 81 C-75.30164063 80.04480469 -75.30164063 80.04480469 -75.609375 79.0703125 C-78.52723334 63.60566332 -74.23249503 49.06354002 -66 36 C-63.49205504 32.51646938 -60.80888388 29.2435921 -58 26 C-57.4121875 25.29101562 -56.824375 24.58203125 -56.21875 23.8515625 C-52.1905093 19.07260421 -47.85185707 14.93438495 -43 11 C-42.06800781 10.24203125 -41.13601563 9.4840625 -40.17578125 8.703125 C-28.21382773 -0.67039043 -14.80129901 -6.87834188 0 0 Z " fill="#093A58" transform="translate(475,22)"/>
<path d="M0 0 C13.06385227 2.90687812 21.67466125 8.71094498 30 19 C30.53496094 19.57621094 31.06992188 20.15242188 31.62109375 20.74609375 C39.61987811 29.3831851 41.38549199 38.8635187 41.27734375 50.36328125 C40.31634188 62.96458749 33.18473681 72.60364314 23.8984375 80.62109375 C20.0885639 83.74806548 16.23542339 86.8152661 12.32763672 89.8190918 C9.36789243 92.09943841 6.49065811 94.41507675 3.71875 96.921875 C-4.8354534 104.62865264 -4.8354534 104.62865264 -9.125 104.9375 C-22.65013107 101.66529087 -32.69125687 91.44793135 -40.625 80.3125 C-47.79645702 68.50717844 -49.90809216 54.36558175 -47.421875 40.859375 C-43.66057041 28.89158766 -33.4976882 21.45966982 -24 14 C-22.05905958 12.42088602 -20.12149738 10.83760979 -18.1875 9.25 C-17.27871094 8.51394531 -16.36992187 7.77789062 -15.43359375 7.01953125 C-13.99650103 5.8269519 -12.58141481 4.60533396 -11.22265625 3.32421875 C-7.42184812 -0.25479156 -5.14643762 -0.73520537 0 0 Z M-19 22 C-19 22.99 -19 23.98 -19 25 C-18.01 24.01 -17.02 23.02 -16 22 C-16.99 22 -17.98 22 -19 22 Z M-11 30 C-15.09658723 34.41170932 -15.34518221 39.22350138 -15.28515625 45.01171875 C-14.51502192 53.08230449 -12.22217875 62.64870152 -7 69 C-4.07465609 70.39929795 -1.15907336 71.29123354 2 72 C6.74694563 64.87958156 5.04692014 55.86698266 3.46557617 47.8659668 C2.22845431 42.27374636 0.66142904 36.51382522 -3 32 C-5.92955883 30.51211681 -7.697937 30 -11 30 Z M8 78 C7.67 78.66 7.34 79.32 7 80 C7.99 80 8.98 80 10 80 C10 79.34 10 78.68 10 78 C9.34 78 8.68 78 8 78 Z " fill="#093A59" transform="translate(161,50)"/>
</svg>
